<svg id="Capa_1" enable-background="new 0 0 512 512" height="512" viewBox="0 0 512 512" width="512" xmlns="http://www.w3.org/2000/svg"><g><circle cx="256" cy="376" r="10"/><path d="m475.953 366.197c-1.598-93.383-59.82-206.794-141.34-253.936 1.069-9.615-1.487-19.292-7.204-27.285 8.808-12.459 9.981-29.006 2.2-42.478-7.779-13.469-22.711-20.724-37.914-19.32-6.382-13.873-20.134-23.178-35.695-23.178s-29.313 9.305-35.696 23.178c-15.204-1.408-30.135 5.852-37.914 19.321-7.78 13.471-6.607 30.018 2.201 42.478-5.715 7.991-8.271 17.665-7.202 27.283-81.325 47.024-139.744 160.327-141.342 253.937-20.208 1.992-36.047 19.082-36.047 39.803v66c0 22.056 17.944 40 40 40h432c22.056 0 40-17.944 40-40v-66c0-20.722-15.84-37.811-36.047-39.803zm-276.244-313.695c4.746-8.216 14.596-11.607 23.953-8.25 5.816 2.087 12.121-1.553 13.219-7.635 1.766-9.784 9.629-16.617 19.119-16.617s17.353 6.833 19.119 16.617c1.094 6.062 7.382 9.729 13.219 7.635 9.356-3.356 19.206.034 23.953 8.249 4.748 8.222 2.763 18.445-4.828 24.862-4.716 3.988-4.728 11.273-.001 15.272 7.454 6.303 9.645 16.533 4.829 24.862-4.746 8.217-14.595 11.607-23.953 8.25-5.816-2.088-12.121 1.554-13.219 7.635-1.766 9.785-9.629 16.618-19.119 16.618s-17.353-6.833-19.119-16.617c-1.101-6.096-7.419-9.717-13.219-7.635-9.358 3.356-19.207-.034-23.955-8.254-4.848-8.387-2.568-18.602 4.831-24.858 4.714-3.988 4.728-11.273-.001-15.272-7.591-6.418-9.576-16.641-4.828-24.862zm-14.929 78.602c8.21 11.132 21.747 16.992 35.524 15.718 6.384 13.873 20.135 23.178 35.696 23.178s29.313-9.305 35.696-23.178c13.777 1.274 27.316-4.588 35.524-15.718 38.561 23.183 73.743 64.49 98.148 115.384l-19.368 19.369-22.929-22.929c-3.905-3.904-10.237-3.904-14.143 0l-22.928 22.929-22.929-22.929c-3.905-3.904-10.237-3.904-14.143 0l-22.928 22.929-22.929-22.929c-3.905-3.904-10.237-3.904-14.143 0l-22.928 22.929-22.929-22.929c-3.905-3.904-10.237-3.904-14.143 0l-22.928 22.929-22.929-22.929c-3.905-3.904-10.237-3.904-14.143 0l-22.928 22.929-19.369-19.369c24.395-50.89 59.577-92.196 98.149-115.384zm307.22 340.896c0 11.028-8.972 20-20 20h-26v-56c0-5.522-4.477-10-10-10s-10 4.478-10 10v56h-70v-56c0-5.522-4.477-10-10-10s-10 4.478-10 10v56h-70v-56c0-5.522-4.477-10-10-10s-10 4.478-10 10v56h-70v-56c0-5.522-4.477-10-10-10s-10 4.478-10 10v56h-70v-56c0-5.522-4.477-10-10-10s-10 4.478-10 10v56h-26c-11.028 0-20-8.972-20-20v-66c0-11.028 8.972-20 20-20h171c5.523 0 10-4.478 10-10s-4.477-10-10-10h-154.95c.604-31.311 8.228-66.022 21.918-99.89l20.961 20.961c3.904 3.903 10.238 3.904 14.143 0l22.928-22.928 22.929 22.929c3.905 3.904 10.237 3.904 14.143 0l22.928-22.929 22.929 22.929c3.905 3.904 10.237 3.904 14.143 0l22.928-22.929 22.929 22.929c3.905 3.904 10.237 3.904 14.143 0l22.928-22.929 22.929 22.929c3.905 3.904 10.237 3.904 14.143 0l22.928-22.929 22.929 22.929c3.904 3.903 10.238 3.904 14.143 0l20.959-20.959c13.689 33.88 21.314 68.591 21.919 99.888h-154.95c-5.523 0-10 4.478-10 10s4.477 10 10 10h171c11.028 0 20 8.972 20 20z"/></g></svg>