<svg width="12" height="18" viewBox="0 0 12 18" fill="none" xmlns="http://www.w3.org/2000/svg">
<path fill-rule="evenodd" clip-rule="evenodd" d="M9.53355 17.0997L1.26695 10.2897C0.914681 9.99945 0.727905 9.50035 0.74304 8.99985C0.727905 8.49935 0.914681 8.00025 1.26695 7.71005L9.53355 0.9C10.0586 0.467421 10.7526 0.662831 11.0836 1.33646C11.4145 2.01009 11.2572 2.90685 10.7321 3.33942L3.86097 8.99985L10.7321 14.6603C11.2572 15.0929 11.4145 15.9896 11.0836 16.6632C10.7526 17.3369 10.0586 17.5323 9.53355 17.0997ZM2.20615 7.69168C2.2063 7.69175 2.20646 7.69181 2.20662 7.69188L9.79775 1.43829C10.0914 1.19641 10.4794 1.30567 10.6644 1.68233C10.7255 1.80657 10.7568 1.94439 10.7609 2.08198C10.7569 1.94419 10.7256 1.80617 10.6644 1.68176C10.4794 1.3051 10.0913 1.19583 9.79773 1.43771L2.20615 7.69168ZM3.40252 9.37752L10.4679 15.198C10.6509 15.3488 10.754 15.6004 10.7609 15.8597C10.7539 15.6006 10.6507 15.3493 10.4679 15.1986L3.40213 9.37784L3.40252 9.37752Z" fill="black"/>
</svg>
