<svg width="24" height="24" viewBox="0 0 24 24" fill="none" xmlns="http://www.w3.org/2000/svg">
<path d="M20.7999 7.74C20.9299 7.32 20.8 7 20.18 7H18.16C17.64 7 17.41 7.27 17.28 7.57C17.28 7.57 16.25 10.08 14.79 11.72C14.31 12.19 14.1 12.34 13.84 12.34C13.71 12.34 13.5 12.19 13.5 11.76V7.74C13.5 7.23 13.38 7 12.95 7H9.75995C9.43995 7 9.24995 7.24 9.24995 7.47C9.24995 7.95 9.99995 8.07 10.05 9.44V12.42C10.05 13.08 9.92995 13.2 9.67995 13.2C8.99995 13.2 7.31995 10.67 6.32995 7.79C6.12995 7.23 5.93995 7 5.41995 7H3.38995C2.81995 7 2.69995 7.27 2.69995 7.57C2.69995 8.11 3.38995 10.77 5.89995 14.29C7.56995 16.7 9.92995 18 12.08 18C13.37 18 13.53 17.71 13.53 17.21V15.39C13.53 14.82 13.65 14.7 14.06 14.7C14.36 14.7 14.87 14.85 16.07 16C17.45 17.38 17.67 18 18.45 18H20.4699C21.0499 18 21.34 17.71 21.18 17.14C21 16.57 20.34 15.74 19.4699 14.76C19 14.21 18.29 13.61 18.07 13.3C17.77 12.92 17.86 12.75 18.07 12.4C18.07 12.4 20.5399 8.93 20.7999 7.74Z" fill="white"/>
</svg>
