<svg width="14" height="14" viewBox="0 0 14 14" fill="none" xmlns="http://www.w3.org/2000/svg">
<path fill-rule="evenodd" clip-rule="evenodd" d="M12.3043 0.788602C12.7337 1.20262 12.7387 1.87903 12.3154 2.29942L2.32684 12.2189C1.90353 12.6393 1.21225 12.6444 0.782832 12.2304C0.353413 11.8164 0.348462 11.14 0.771774 10.7196L10.7603 0.800136C11.1836 0.379751 11.8749 0.374587 12.3043 0.788602Z" fill="black"/>
<path fill-rule="evenodd" clip-rule="evenodd" d="M12.3043 12.2873C12.7337 11.8733 12.7387 11.1969 12.3154 10.7765L2.32684 0.857037C1.90353 0.436652 1.21225 0.431488 0.782832 0.845503C0.353413 1.25952 0.348462 1.93593 0.771774 2.35632L10.7603 12.2758C11.1836 12.6962 11.8749 12.7013 12.3043 12.2873Z" fill="black"/>
</svg>
